<svg width="376" height="432" viewBox="0 0 376 432" fill="none" xmlns="http://www.w3.org/2000/svg">
<path d="M53.8024 128C52.8389 129.568 52.3076 131.406 52.3076 133.406V286.609C52.3076 290.339 54.3753 293.859 57.6878 295.724L181.912 362.594C183.438 363.411 185.12 363.823 186.776 363.833L186.881 199.656L53.8024 128Z" fill="#1B394F"/>
<path d="M181.911 57.4217L57.6872 124.297C56.057 125.213 54.7288 126.479 53.8018 128L186.88 199.656L319.765 128.104C318.838 126.547 317.5 125.219 315.864 124.297L191.64 57.4217C190.151 56.6092 188.474 56.1821 186.776 56.1821C185.078 56.1821 183.401 56.6092 181.911 57.4217Z" fill="#1B394F"/>
<path d="M186.776 363.833C188.485 363.849 190.172 363.432 191.641 362.594L315.865 295.724C319.177 293.859 321.245 290.338 321.245 286.609V133.406C321.245 131.521 320.719 129.693 319.766 128.104L186.881 199.656L186.776 363.833Z" fill="#1B394F"/>
<path d="M186.776 363.833C185.12 363.823 183.438 363.411 181.912 362.594L57.6878 295.724C54.3753 293.859 52.3076 290.338 52.3076 286.609V133.406C52.3076 131.406 52.8389 129.568 53.8024 128M181.912 362.594C185.016 364.25 188.745 364.25 191.641 362.594M53.8024 128L52.3076 127.193M53.8024 128L186.881 199.656M53.8024 128C54.7295 126.479 56.0576 125.213 57.6878 124.297L181.912 57.4217C183.401 56.6092 185.078 56.1821 186.776 56.1821C188.474 56.1821 190.151 56.6092 191.641 57.4217L315.865 124.297C317.5 125.219 318.839 126.547 319.766 128.104M186.776 363.833C188.485 363.849 190.172 363.432 191.641 362.594L315.865 295.724C319.177 293.859 321.245 290.338 321.245 286.609V133.406C321.245 131.521 320.719 129.693 319.766 128.104M186.776 363.833L186.881 199.656M319.766 128.104L186.881 199.656M319.766 128.104L321.453 127.193" stroke="#8CA9BE" stroke-width="1.93718"/>
<path d="M197.593 364.193C197.593 364.953 197.521 365.708 197.369 366.458C197.224 367.208 197 367.932 196.708 368.641C196.416 369.344 196.057 370.016 195.635 370.651C195.213 371.281 194.729 371.87 194.192 372.411C193.651 372.948 193.062 373.432 192.427 373.854C191.791 374.281 191.125 374.635 190.422 374.932C189.713 375.224 188.989 375.443 188.239 375.594C187.489 375.74 186.734 375.812 185.974 375.812C185.208 375.812 184.453 375.74 183.703 375.594C182.953 375.443 182.229 375.224 181.521 374.932C180.817 374.635 180.151 374.281 179.515 373.854C178.88 373.432 178.291 372.948 177.755 372.411C177.213 371.87 176.729 371.281 176.307 370.651C175.885 370.016 175.526 369.344 175.234 368.641C174.942 367.932 174.718 367.208 174.573 366.458C174.422 365.708 174.349 364.953 174.349 364.193C174.349 363.427 174.422 362.672 174.573 361.922C174.718 361.177 174.942 360.448 175.234 359.745C175.526 359.036 175.885 358.37 176.307 357.734C176.729 357.099 177.213 356.51 177.755 355.974C178.291 355.432 178.88 354.953 179.515 354.526C180.151 354.104 180.817 353.745 181.521 353.453C182.229 353.161 182.953 352.943 183.703 352.792C184.453 352.641 185.208 352.568 185.974 352.568C186.734 352.568 187.489 352.641 188.239 352.792C188.989 352.943 189.713 353.161 190.422 353.453C191.125 353.745 191.791 354.104 192.427 354.526C193.062 354.953 193.651 355.432 194.192 355.974C194.729 356.51 195.213 357.099 195.635 357.734C196.057 358.37 196.416 359.036 196.708 359.745C197 360.448 197.224 361.177 197.369 361.922C197.521 362.672 197.593 363.427 197.593 364.193Z" fill="#8CA9BE"/>
<path d="M329.323 127.854C329.323 128.62 329.25 129.375 329.099 130.125C328.948 130.87 328.729 131.599 328.438 132.302C328.146 133.01 327.786 133.677 327.365 134.312C326.938 134.948 326.458 135.536 325.917 136.073C325.38 136.615 324.792 137.094 324.156 137.521C323.521 137.943 322.854 138.302 322.146 138.594C321.443 138.885 320.714 139.109 319.969 139.255C319.219 139.406 318.464 139.479 317.698 139.479C316.938 139.479 316.182 139.406 315.432 139.255C314.682 139.109 313.958 138.885 313.25 138.594C312.547 138.302 311.875 137.943 311.24 137.521C310.609 137.094 310.021 136.615 309.479 136.073C308.943 135.536 308.458 134.948 308.036 134.312C307.609 133.677 307.255 133.01 306.964 132.302C306.667 131.599 306.448 130.87 306.302 130.125C306.151 129.375 306.078 128.62 306.078 127.854C306.078 127.094 306.151 126.339 306.302 125.589C306.448 124.839 306.667 124.115 306.964 123.406C307.255 122.703 307.609 122.031 308.036 121.401C308.458 120.766 308.943 120.177 309.479 119.635C310.021 119.099 310.609 118.615 311.24 118.193C311.875 117.766 312.547 117.411 313.25 117.12C313.958 116.828 314.682 116.604 315.432 116.458C316.182 116.307 316.938 116.234 317.698 116.234C318.464 116.234 319.219 116.307 319.969 116.458C320.714 116.604 321.443 116.828 322.146 117.12C322.854 117.411 323.521 117.766 324.156 118.193C324.792 118.615 325.38 119.099 325.917 119.635C326.458 120.177 326.938 120.766 327.365 121.401C327.786 122.031 328.146 122.703 328.438 123.406C328.729 124.115 328.948 124.839 329.099 125.589C329.25 126.339 329.323 127.094 329.323 127.854Z" fill="#8CA9BE"/>
<path d="M63.9274 292.516C63.9274 293.281 63.8545 294.036 63.7087 294.781C63.5576 295.531 63.3389 296.26 63.0472 296.964C62.7503 297.667 62.3962 298.339 61.9691 298.974C61.5472 299.609 61.0628 300.193 60.5264 300.734C59.9847 301.276 59.3962 301.755 58.766 302.182C58.1305 302.604 57.4587 302.964 56.7555 303.255C56.0472 303.547 55.3232 303.766 54.5732 303.917C53.8232 304.062 53.068 304.141 52.3076 304.141C51.542 304.141 50.7868 304.062 50.0368 303.917C49.292 303.766 48.5628 303.547 47.8597 303.255C47.1514 302.964 46.4847 302.604 45.8493 302.182C45.2139 301.755 44.6253 301.276 44.0889 300.734C43.5472 300.193 43.068 299.609 42.641 298.974C42.2191 298.339 41.8597 297.667 41.568 296.964C41.2764 296.26 41.0576 295.531 40.9066 294.781C40.7555 294.036 40.6826 293.281 40.6826 292.516C40.6826 291.755 40.7555 290.995 40.9066 290.25C41.0576 289.5 41.2764 288.771 41.568 288.068C41.8597 287.365 42.2191 286.693 42.641 286.057C43.068 285.422 43.5472 284.839 44.0889 284.297C44.6253 283.755 45.2139 283.276 45.8493 282.854C46.4847 282.427 47.1514 282.068 47.8597 281.776C48.5628 281.484 49.292 281.266 50.0368 281.115C50.7868 280.969 51.542 280.891 52.3076 280.891C53.068 280.891 53.8232 280.969 54.5732 281.115C55.3232 281.266 56.0472 281.484 56.7555 281.776C57.4587 282.068 58.1305 282.427 58.766 282.854C59.3962 283.276 59.9847 283.755 60.5264 284.297C61.0628 284.839 61.5472 285.422 61.9691 286.057C62.3962 286.693 62.7503 287.365 63.0472 288.068C63.3389 288.771 63.5576 289.5 63.7087 290.25C63.8545 290.995 63.9274 291.755 63.9274 292.516Z" fill="#8CA9BE"/>
<path d="M63.9274 127.854C63.9274 128.62 63.8545 129.375 63.7087 130.125C63.5576 130.87 63.3389 131.599 63.0472 132.302C62.7503 133.01 62.3962 133.677 61.9691 134.312C61.5472 134.948 61.0628 135.536 60.5264 136.073C59.9847 136.615 59.3962 137.094 58.766 137.521C58.1305 137.943 57.4587 138.302 56.7555 138.594C56.0472 138.885 55.3232 139.109 54.5732 139.255C53.8232 139.406 53.068 139.479 52.3076 139.479C51.542 139.479 50.7868 139.406 50.0368 139.255C49.292 139.109 48.5628 138.885 47.8597 138.594C47.1514 138.302 46.4847 137.943 45.8493 137.521C45.2139 137.094 44.6253 136.615 44.0889 136.073C43.5472 135.536 43.068 134.948 42.641 134.312C42.2191 133.677 41.8597 133.01 41.568 132.302C41.2764 131.599 41.0576 130.87 40.9066 130.125C40.7555 129.375 40.6826 128.62 40.6826 127.854C40.6826 127.094 40.7555 126.339 40.9066 125.589C41.0576 124.839 41.2764 124.115 41.568 123.406C41.8597 122.703 42.2191 122.031 42.641 121.401C43.068 120.766 43.5472 120.177 44.0889 119.635C44.6253 119.099 45.2139 118.615 45.8493 118.193C46.4847 117.766 47.1514 117.411 47.8597 117.12C48.5628 116.828 49.292 116.604 50.0368 116.458C50.7868 116.307 51.542 116.234 52.3076 116.234C53.068 116.234 53.8232 116.307 54.5732 116.458C55.3232 116.604 56.0472 116.828 56.7555 117.12C57.4587 117.411 58.1305 117.766 58.766 118.193C59.3962 118.615 59.9847 119.099 60.5264 119.635C61.0628 120.177 61.5472 120.766 61.9691 121.401C62.3962 122.031 62.7503 122.703 63.0472 123.406C63.3389 124.115 63.5576 124.839 63.7087 125.589C63.8545 126.339 63.9274 127.094 63.9274 127.854Z" fill="#8CA9BE"/>
<path d="M333.198 292.516C333.198 293.281 333.125 294.036 332.974 294.781C332.823 295.531 332.604 296.26 332.312 296.964C332.021 297.667 331.661 298.339 331.24 298.974C330.813 299.609 330.333 300.193 329.792 300.734C329.255 301.276 328.667 301.755 328.031 302.182C327.396 302.604 326.729 302.964 326.021 303.255C325.318 303.547 324.589 303.766 323.844 303.917C323.094 304.062 322.339 304.141 321.573 304.141C320.813 304.141 320.057 304.062 319.307 303.917C318.557 303.766 317.833 303.547 317.125 303.255C316.422 302.964 315.75 302.604 315.115 302.182C314.484 301.755 313.896 301.276 313.354 300.734C312.818 300.193 312.333 299.609 311.911 298.974C311.484 298.339 311.125 297.667 310.833 296.964C310.542 296.26 310.323 295.531 310.172 294.781C310.026 294.036 309.953 293.281 309.953 292.516C309.953 291.755 310.026 290.995 310.172 290.25C310.323 289.5 310.542 288.771 310.833 288.068C311.125 287.365 311.484 286.693 311.911 286.057C312.333 285.422 312.818 284.839 313.354 284.297C313.896 283.755 314.484 283.276 315.115 282.854C315.75 282.427 316.422 282.068 317.125 281.776C317.833 281.484 318.557 281.266 319.307 281.115C320.057 280.969 320.813 280.891 321.573 280.891C322.339 280.891 323.094 280.969 323.844 281.115C324.589 281.266 325.318 281.484 326.021 281.776C326.729 282.068 327.396 282.427 328.031 282.854C328.667 283.276 329.255 283.755 329.792 284.297C330.333 284.839 330.813 285.422 331.24 286.057C331.661 286.693 332.021 287.365 332.312 288.068C332.604 288.771 332.823 289.5 332.974 290.25C333.125 290.995 333.198 291.755 333.198 292.516Z" fill="#8CA9BE"/>
<path d="M197.593 197.594C197.593 198.359 197.521 199.115 197.369 199.865C197.224 200.609 197 201.338 196.708 202.042C196.416 202.75 196.057 203.417 195.635 204.052C195.213 204.687 194.729 205.276 194.192 205.812C193.651 206.354 193.062 206.833 192.427 207.26C191.791 207.682 191.125 208.042 190.422 208.333C189.713 208.625 188.989 208.844 188.239 208.995C187.489 209.141 186.734 209.219 185.974 209.219C185.208 209.219 184.453 209.141 183.703 208.995C182.953 208.844 182.229 208.625 181.521 208.333C180.817 208.042 180.151 207.682 179.515 207.26C178.88 206.833 178.291 206.354 177.755 205.812C177.213 205.276 176.729 204.687 176.307 204.052C175.885 203.417 175.526 202.75 175.234 202.042C174.942 201.338 174.718 200.609 174.573 199.865C174.422 199.115 174.349 198.359 174.349 197.594C174.349 196.833 174.422 196.073 174.573 195.328C174.718 194.578 174.942 193.854 175.234 193.146C175.526 192.443 175.885 191.771 176.307 191.135C176.729 190.5 177.213 189.917 177.755 189.375C178.291 188.838 178.88 188.354 179.515 187.932C180.151 187.505 180.817 187.146 181.521 186.854C182.229 186.562 182.953 186.344 183.703 186.193C184.453 186.047 185.208 185.974 185.974 185.974C186.734 185.974 187.489 186.047 188.239 186.193C188.989 186.344 189.713 186.562 190.422 186.854C191.125 187.146 191.791 187.505 192.427 187.932C193.062 188.354 193.651 188.838 194.192 189.375C194.729 189.917 195.213 190.5 195.635 191.135C196.057 191.771 196.416 192.443 196.708 193.146C197 193.854 197.224 194.578 197.369 195.328C197.521 196.073 197.593 196.833 197.593 197.594Z" fill="#8CA9BE"/>
<mask id="mask0_152_1107" style="mask-type:luminance" maskUnits="userSpaceOnUse" x="0" y="310" width="24" height="27">
<path d="M0 310.797H23.3125V336.13H0V310.797Z" fill="white"/>
</mask>
<g mask="url(#mask0_152_1107)">
<path d="M23.25 323.51C23.25 324.276 23.1719 325.031 23.026 325.776C22.875 326.526 22.6562 327.255 22.3646 327.958C22.0729 328.662 21.7135 329.333 21.2917 329.969C20.8646 330.604 20.3854 331.193 19.8438 331.729C19.3021 332.271 18.7188 332.75 18.0833 333.177C17.4479 333.599 16.776 333.958 16.0729 334.25C15.3698 334.542 14.6406 334.76 13.8906 334.912C13.1458 335.057 12.3906 335.135 11.625 335.135C10.8646 335.135 10.1042 335.057 9.35938 334.912C8.60938 334.76 7.88021 334.542 7.17708 334.25C6.47396 333.958 5.80208 333.599 5.16667 333.177C4.53125 332.75 3.94792 332.271 3.40625 331.729C2.86458 331.193 2.38542 330.604 1.96354 329.969C1.53646 329.333 1.17708 328.662 0.885417 327.958C0.59375 327.255 0.375 326.526 0.223958 325.776C0.078125 325.031 0 324.276 0 323.51C0 322.75 0.078125 321.99 0.223958 321.245C0.375 320.495 0.59375 319.766 0.885417 319.063C1.17708 318.359 1.53646 317.688 1.96354 317.052C2.38542 316.417 2.86458 315.833 3.40625 315.292C3.94792 314.755 4.53125 314.271 5.16667 313.849C5.80208 313.422 6.47396 313.063 7.17708 312.771C7.88021 312.479 8.60938 312.26 9.35938 312.109C10.1042 311.964 10.8646 311.885 11.625 311.885C12.3906 311.885 13.1458 311.964 13.8906 312.109C14.6406 312.26 15.3698 312.479 16.0729 312.771C16.776 313.063 17.4479 313.422 18.0833 313.849C18.7188 314.271 19.3021 314.755 19.8438 315.292C20.3854 315.833 20.8646 316.417 21.2917 317.052C21.7135 317.688 22.0729 318.359 22.3646 319.063C22.6562 319.766 22.875 320.495 23.026 321.245C23.1719 321.99 23.25 322.75 23.25 323.51Z" fill="#8CA9BE"/>
</g>
<mask id="mask1_152_1107" style="mask-type:luminance" maskUnits="userSpaceOnUse" x="173" y="0" width="25" height="25">
<path d="M173.979 0H197.979V24.1302H173.979V0Z" fill="white"/>
</mask>
<g mask="url(#mask1_152_1107)">
<path d="M197.594 11.625C197.594 12.3906 197.521 13.1458 197.37 13.8906C197.224 14.6406 197 15.3698 196.709 16.0729C196.417 16.776 196.058 17.4479 195.636 18.0833C195.214 18.7188 194.73 19.3021 194.193 19.8438C193.651 20.3854 193.063 20.8646 192.427 21.2917C191.792 21.7135 191.125 22.0729 190.422 22.3646C189.714 22.6562 188.99 22.875 188.24 23.026C187.49 23.1719 186.735 23.25 185.974 23.25C185.209 23.25 184.454 23.1719 183.704 23.026C182.954 22.875 182.23 22.6562 181.521 22.3646C180.818 22.0729 180.151 21.7135 179.516 21.2917C178.881 20.8646 178.292 20.3854 177.756 19.8438C177.214 19.3021 176.73 18.7188 176.308 18.0833C175.886 17.4479 175.526 16.776 175.235 16.0729C174.943 15.3698 174.719 14.6406 174.573 13.8906C174.422 13.1458 174.349 12.3906 174.349 11.625C174.349 10.8646 174.422 10.1042 174.573 9.35938C174.719 8.60938 174.943 7.88021 175.235 7.17708C175.526 6.47396 175.886 5.80208 176.308 5.16667C176.73 4.53125 177.214 3.94792 177.756 3.40625C178.292 2.86458 178.881 2.38542 179.516 1.96354C180.151 1.53646 180.818 1.17708 181.521 0.885417C182.23 0.59375 182.954 0.375001 183.704 0.223958C184.454 0.0781263 185.209 0 185.974 0C186.735 0 187.49 0.0781263 188.24 0.223958C188.99 0.375001 189.714 0.59375 190.422 0.885417C191.125 1.17708 191.792 1.53646 192.427 1.96354C193.063 2.38542 193.651 2.86458 194.193 3.40625C194.73 3.94792 195.214 4.53125 195.636 5.16667C196.058 5.80208 196.417 6.47396 196.709 7.17708C197 7.88021 197.224 8.60938 197.37 9.35938C197.521 10.1042 197.594 10.8646 197.594 11.625Z" fill="#8CA9BE"/>
</g>
<mask id="mask2_152_1107" style="mask-type:luminance" maskUnits="userSpaceOnUse" x="351" y="88" width="25" height="26">
<path d="M351.312 88.1301H376V113.463H351.312V88.1301Z" fill="white"/>
</mask>
<g mask="url(#mask2_152_1107)">
<path d="M375.813 100.734C375.813 101.5 375.74 102.255 375.594 103.005C375.443 103.75 375.224 104.479 374.932 105.182C374.635 105.891 374.281 106.557 373.854 107.193C373.432 107.828 372.948 108.417 372.411 108.953C371.87 109.495 371.281 109.974 370.651 110.401C370.016 110.823 369.344 111.182 368.641 111.474C367.932 111.766 367.208 111.984 366.458 112.135C365.708 112.286 364.953 112.359 364.193 112.359C363.427 112.359 362.672 112.286 361.922 112.135C361.177 111.984 360.448 111.766 359.745 111.474C359.036 111.182 358.37 110.823 357.734 110.401C357.099 109.974 356.51 109.495 355.974 108.953C355.432 108.417 354.953 107.828 354.526 107.193C354.104 106.557 353.745 105.891 353.453 105.182C353.161 104.479 352.943 103.75 352.792 103.005C352.641 102.255 352.568 101.5 352.568 100.734C352.568 99.9739 352.641 99.2187 352.792 98.4687C352.943 97.7187 353.161 96.9947 353.453 96.2864C353.745 95.5833 354.104 94.9114 354.526 94.276C354.953 93.6458 355.432 93.0572 355.974 92.5155C356.51 91.9791 357.099 91.4947 357.734 91.0728C358.37 90.6458 359.036 90.2916 359.745 89.9947C360.448 89.703 361.177 89.4843 361.922 89.3333C362.672 89.1874 363.427 89.1145 364.193 89.1145C364.953 89.1145 365.708 89.1874 366.458 89.3333C367.208 89.4843 367.932 89.703 368.641 89.9947C369.344 90.2916 370.016 90.6458 370.651 91.0728C371.281 91.4947 371.87 91.9791 372.411 92.5155C372.948 93.0572 373.432 93.6458 373.854 94.276C374.281 94.9114 374.635 95.5833 374.932 96.2864C375.224 96.9947 375.443 97.7187 375.594 98.4687C375.74 99.2187 375.813 99.9739 375.813 100.734Z" fill="#8CA9BE"/>
</g>
<mask id="mask3_152_1107" style="mask-type:luminance" maskUnits="userSpaceOnUse" x="0" y="88" width="24" height="26">
<path d="M0 88.1301H23.3125V113.463H0V88.1301Z" fill="white"/>
</mask>
<g mask="url(#mask3_152_1107)">
<path d="M23.25 100.734C23.25 101.5 23.1719 102.255 23.026 103.005C22.875 103.75 22.6562 104.479 22.3646 105.182C22.0729 105.891 21.7135 106.557 21.2917 107.193C20.8646 107.828 20.3854 108.417 19.8438 108.953C19.3021 109.495 18.7188 109.974 18.0833 110.401C17.4479 110.823 16.776 111.182 16.0729 111.474C15.3698 111.766 14.6406 111.984 13.8906 112.135C13.1458 112.286 12.3906 112.359 11.625 112.359C10.8646 112.359 10.1042 112.286 9.35938 112.135C8.60938 111.984 7.88021 111.766 7.17708 111.474C6.47396 111.182 5.80208 110.823 5.16667 110.401C4.53125 109.974 3.94792 109.495 3.40625 108.953C2.86458 108.417 2.38542 107.828 1.96354 107.193C1.53646 106.557 1.17708 105.891 0.885417 105.182C0.59375 104.479 0.375 103.75 0.223958 103.005C0.078125 102.255 0 101.5 0 100.734C0 99.9739 0.078125 99.2187 0.223958 98.4687C0.375 97.7187 0.59375 96.9947 0.885417 96.2864C1.17708 95.5833 1.53646 94.9114 1.96354 94.276C2.38542 93.6458 2.86458 93.0572 3.40625 92.5155C3.94792 91.9791 4.53125 91.4947 5.16667 91.0728C5.80208 90.6458 6.47396 90.2916 7.17708 89.9947C7.88021 89.703 8.60938 89.4843 9.35938 89.3333C10.1042 89.1874 10.8646 89.1145 11.625 89.1145C12.3906 89.1145 13.1458 89.1874 13.8906 89.3333C14.6406 89.4843 15.3698 89.703 16.0729 89.9947C16.776 90.2916 17.4479 90.6458 18.0833 91.0728C18.7188 91.4947 19.3021 91.9791 19.8438 92.5155C20.3854 93.0572 20.8646 93.6458 21.2917 94.276C21.7135 94.9114 22.0729 95.5833 22.3646 96.2864C22.6562 96.9947 22.875 97.7187 23.026 98.4687C23.1719 99.2187 23.25 99.9739 23.25 100.734Z" fill="#8CA9BE"/>
</g>
<mask id="mask4_152_1107" style="mask-type:luminance" maskUnits="userSpaceOnUse" x="351" y="310" width="25" height="27">
<path d="M351.312 310.797H376V336.13H351.312V310.797Z" fill="white"/>
</mask>
<g mask="url(#mask4_152_1107)">
<path d="M375.813 323.51C375.813 324.276 375.74 325.031 375.594 325.776C375.443 326.526 375.224 327.255 374.932 327.958C374.635 328.662 374.281 329.333 373.854 329.969C373.432 330.604 372.948 331.193 372.411 331.729C371.87 332.271 371.281 332.75 370.651 333.177C370.016 333.599 369.344 333.958 368.641 334.25C367.932 334.542 367.208 334.76 366.458 334.912C365.708 335.057 364.953 335.135 364.193 335.135C363.427 335.135 362.672 335.057 361.922 334.912C361.177 334.76 360.448 334.542 359.745 334.25C359.036 333.958 358.37 333.599 357.734 333.177C357.099 332.75 356.51 332.271 355.974 331.729C355.432 331.193 354.953 330.604 354.526 329.969C354.104 329.333 353.745 328.662 353.453 327.958C353.161 327.255 352.943 326.526 352.792 325.776C352.641 325.031 352.568 324.276 352.568 323.51C352.568 322.75 352.641 321.99 352.792 321.245C352.943 320.495 353.161 319.766 353.453 319.063C353.745 318.359 354.104 317.688 354.526 317.052C354.953 316.417 355.432 315.833 355.974 315.292C356.51 314.755 357.099 314.271 357.734 313.849C358.37 313.422 359.036 313.063 359.745 312.771C360.448 312.479 361.177 312.26 361.922 312.109C362.672 311.964 363.427 311.885 364.193 311.885C364.953 311.885 365.708 311.964 366.458 312.109C367.208 312.26 367.932 312.479 368.641 312.771C369.344 313.063 370.016 313.422 370.651 313.849C371.281 314.271 371.87 314.755 372.411 315.292C372.948 315.833 373.432 316.417 373.854 317.052C374.281 317.688 374.635 318.359 374.932 319.063C375.224 319.766 375.443 320.495 375.594 321.245C375.74 321.99 375.813 322.75 375.813 323.51Z" fill="#8CA9BE"/>
</g>
<path d="M197.593 56.1821C197.593 56.9425 197.521 57.6978 197.369 58.4478C197.224 59.1978 197 59.9217 196.708 60.63C196.416 61.3332 196.057 62.005 195.635 62.6353C195.213 63.2707 194.729 63.8592 194.192 64.4009C193.651 64.9373 193.062 65.4217 192.427 65.8436C191.791 66.2707 191.125 66.6248 190.422 66.9165C189.713 67.2082 188.989 67.4321 188.239 67.578C187.489 67.729 186.734 67.8019 185.974 67.8019C185.208 67.8019 184.453 67.729 183.703 67.578C182.953 67.4321 182.229 67.2082 181.521 66.9165C180.817 66.6248 180.151 66.2707 179.515 65.8436C178.88 65.4217 178.291 64.9373 177.755 64.4009C177.213 63.8592 176.729 63.2707 176.307 62.6353C175.885 62.005 175.526 61.3332 175.234 60.63C174.942 59.9217 174.718 59.1978 174.573 58.4478C174.422 57.6978 174.349 56.9425 174.349 56.1821C174.349 55.4165 174.422 54.6613 174.573 53.9113C174.718 53.1665 174.942 52.4373 175.234 51.7342C175.526 51.0259 175.885 50.3592 176.307 49.7238C176.729 49.0884 177.213 48.4998 177.755 47.9634C178.291 47.4217 178.88 46.9425 179.515 46.5155C180.151 46.0936 180.817 45.7342 181.521 45.4425C182.229 45.1509 182.953 44.9321 183.703 44.7811C184.453 44.63 185.208 44.5571 185.974 44.5571C186.734 44.5571 187.489 44.63 188.239 44.7811C188.989 44.9321 189.713 45.1509 190.422 45.4425C191.125 45.7342 191.791 46.0936 192.427 46.5155C193.062 46.9425 193.651 47.4217 194.192 47.9634C194.729 48.4998 195.213 49.0884 195.635 49.7238C196.057 50.3592 196.416 51.0259 196.708 51.7342C197 52.4373 197.224 53.1665 197.369 53.9113C197.521 54.6613 197.593 55.4165 197.593 56.1821Z" fill="#8CA9BE"/>
<mask id="mask5_152_1107" style="mask-type:luminance" maskUnits="userSpaceOnUse" x="0" y="0" width="376" height="431">
<path d="M0 0H375.312V430.797H0V0Z" fill="white"/>
</mask>
<g mask="url(#mask5_152_1107)">
<path d="M186.937 365.161V419.401M10.6562 103.641V322.542L186.937 419.401L364.193 322.542V103.641L186.937 10.6562L10.6562 103.641ZM10.6562 322.542L51.3385 293.484M364.193 322.542L318.667 293.484M10.6562 103.641L51.3385 127.854M186.937 10.6562V53.276M364.193 103.641L318.667 127.854" stroke="#8CA9BE" stroke-width="1.93718"/>
</g>
<mask id="mask6_152_1107" style="mask-type:luminance" maskUnits="userSpaceOnUse" x="0" y="0" width="376" height="431">
<path d="M0 0H375.312V430.797H0V0Z" fill="white"/>
</mask>
<g mask="url(#mask6_152_1107)">
<path d="M186.937 365.161V419.401M10.6562 103.641V322.542L186.937 419.401L364.193 322.542V103.641L186.937 10.6562L10.6562 103.641ZM10.6562 322.542L51.3385 293.484M364.193 322.542L318.667 293.484M10.6562 103.641L51.3385 127.854M186.937 10.6562V53.276M364.193 103.641L318.667 127.854" stroke="#8CA9BE" stroke-width="1.93718"/>
</g>
<mask id="mask7_152_1107" style="mask-type:luminance" maskUnits="userSpaceOnUse" x="175" y="408" width="26" height="24">
<path d="M175.312 408.13H200.646V432H175.312V408.13Z" fill="white"/>
</mask>
<g mask="url(#mask7_152_1107)">
<path d="M199.531 420.37C199.531 421.135 199.458 421.891 199.307 422.635C199.161 423.385 198.938 424.115 198.646 424.818C198.354 425.521 197.995 426.193 197.573 426.828C197.151 427.464 196.667 428.047 196.125 428.589C195.589 429.13 195 429.609 194.365 430.036C193.729 430.458 193.063 430.818 192.354 431.109C191.651 431.401 190.927 431.62 190.177 431.771C189.427 431.917 188.672 431.995 187.906 431.995C187.146 431.995 186.391 431.917 185.641 431.771C184.891 431.62 184.167 431.401 183.458 431.109C182.755 430.818 182.083 430.458 181.453 430.036C180.818 429.609 180.229 429.13 179.688 428.589C179.151 428.047 178.667 427.464 178.245 426.828C177.818 426.193 177.464 425.521 177.172 424.818C176.88 424.115 176.656 423.385 176.51 422.635C176.359 421.891 176.286 421.135 176.286 420.37C176.286 419.604 176.359 418.849 176.51 418.104C176.656 417.354 176.88 416.625 177.172 415.922C177.464 415.219 177.818 414.547 178.245 413.911C178.667 413.276 179.151 412.693 179.688 412.151C180.229 411.609 180.818 411.13 181.453 410.703C182.083 410.281 182.755 409.922 183.458 409.63C184.167 409.339 184.891 409.12 185.641 408.969C186.391 408.823 187.146 408.745 187.906 408.745C188.672 408.745 189.427 408.823 190.177 408.969C190.927 409.12 191.651 409.339 192.354 409.63C193.063 409.922 193.729 410.281 194.365 410.703C195 411.13 195.589 411.609 196.125 412.151C196.667 412.693 197.151 413.276 197.573 413.911C197.995 414.547 198.354 415.219 198.646 415.922C198.938 416.625 199.161 417.354 199.307 418.104C199.458 418.849 199.531 419.604 199.531 420.37Z" fill="#8CA9BE"/>
</g>
<path d="M81.6976 187.406L79.6924 262.906L82.333 264.427L86.208 266.365C88.6247 266.479 90.083 268.302 94.734 269.021L96.4997 208.078C96.6611 206.146 96.8226 204.219 102.614 204.698L141.869 223.516C145.864 226.12 151.166 233.234 140.422 240.891L107.604 226.495C107.359 229.396 107.088 231.208 106.88 235.182C106.739 237.818 106.479 240.01 106.156 243.87L141.875 258.505C148.765 257.458 162.593 252.453 163.104 236.948C164.015 229.896 161.88 214.297 146.047 208.313L89.9788 181.292C87.7288 181.104 82.9163 182.068 81.6976 187.406Z" fill="#8CA9BE"/>
<path d="M290.88 190.792L292.958 272.401H277.844L276.078 211.458C275.916 209.531 275.755 207.599 269.963 208.083L230.708 226.901C226.713 229.5 221.406 236.615 232.156 244.276L264.974 229.88C265.213 232.776 265.489 234.594 265.698 238.568C265.833 241.203 266.099 243.396 266.422 247.255L230.703 261.891C223.812 260.844 209.984 255.838 209.469 240.328C208.562 233.281 210.698 217.677 226.526 211.698L282.594 184.677C284.849 184.49 289.656 185.448 290.88 190.792Z" fill="#8CA9BE"/>
<path d="M132.079 134.74L194.131 169.521L196.464 168.12L199.646 165.927C200.714 164.078 202.823 163.74 205.297 160.401L155.266 132.214C153.724 131.234 152.183 130.26 154.922 125.927L186.448 103.38C190.224 101.391 198.292 100.354 200.329 112.161L174.188 130.354C176.5 131.818 177.901 132.828 181.131 134.74C183.266 136.01 184.985 137.177 188.068 139.13L215.584 118.771C217.495 112.901 218.006 103.115 205.297 95.8906C199.792 92.0781 185.943 86.8906 174.568 96.6875L130.334 125.547C129.266 127.234 128.125 131.432 132.079 134.74Z" fill="#8CA9BE"/>
<mask id="mask8_152_1107" style="mask-type:luminance" maskUnits="userSpaceOnUse" x="0" y="1" width="376" height="431">
<path d="M0 1H375.312V431.797H0V1Z" fill="white"/>
</mask>
<g mask="url(#mask8_152_1107)">
<path d="M186.937 366.161V420.401M10.6562 104.641V323.542L186.937 420.401L364.193 323.542V104.641L186.937 11.6562L10.6562 104.641ZM10.6562 323.542L51.3385 294.484M364.193 323.542L318.667 294.484M10.6562 104.641L51.3385 128.854M186.937 11.6562V54.276M364.193 104.641L318.667 128.854" stroke="#8CA9BE" stroke-width="1.93718"/>
</g>
</svg>
