<svg width="194" height="223" viewBox="0 0 194 223" fill="none" xmlns="http://www.w3.org/2000/svg">
<path d="M27.7716 66.0739C27.2759 66.884 27 67.833 27 68.8647V147.952C27 149.876 28.0688 151.693 29.7787 152.655L93.9038 187.175C94.693 187.596 95.5599 187.81 96.4153 187.816L96.4688 103.065L27.7716 66.0739Z" fill="white"/>
<path d="M93.9038 29.6416L29.7787 64.1622C28.9376 64.6354 28.2515 65.2896 27.7716 66.0739L96.4688 103.065L165.067 66.127C164.587 65.3232 163.898 64.6381 163.052 64.1622L98.9269 29.6416C98.1567 29.2206 97.293 29 96.4153 29C95.5376 29 94.674 29.2206 93.9038 29.6416Z" fill="white"/>
<path d="M96.4153 187.816C97.2974 187.823 98.1672 187.609 98.9269 187.175L163.052 152.655C164.762 151.693 165.831 149.876 165.831 147.952V68.8647C165.831 67.8927 165.558 66.948 165.067 66.127L96.4688 103.065L96.4153 187.816Z" fill="white"/>
<path d="M93.9038 187.175L29.7787 152.655C28.0688 151.693 27 149.876 27 147.952V68.8647C27 67.833 27.2759 66.884 27.7716 66.0739M93.9038 187.175C95.5069 188.03 97.4306 188.03 98.9269 187.175M93.9038 187.175C94.693 187.596 95.5599 187.81 96.4153 187.816M98.9269 187.175L163.052 152.655C164.762 151.693 165.831 149.876 165.831 147.952V68.8647C165.831 67.8927 165.558 66.948 165.067 66.127M98.9269 187.175C98.1672 187.609 97.2974 187.823 96.4153 187.816M27 65.6584L27.7716 66.0739M96.4688 103.065L96.4153 187.816M96.4688 103.065L165.067 66.127M96.4688 103.065L27.7716 66.0739M165.938 65.6584L165.067 66.127M165.067 66.127C164.587 65.3232 163.898 64.6381 163.052 64.1622L98.9269 29.6416C98.1567 29.2206 97.293 29 96.4153 29C95.5376 29 94.6739 29.2206 93.9038 29.6416L29.7787 64.1622C28.9376 64.6354 28.2515 65.2896 27.7716 66.0739" stroke="#1B394F"/>
<circle cx="96" cy="188" r="6" fill="#1B394F"/>
<circle cx="164" cy="66" r="6" fill="#1B394F"/>
<circle cx="27" cy="151" r="6" fill="#1B394F"/>
<circle cx="27" cy="66" r="6" fill="#1B394F"/>
<circle cx="166" cy="151" r="6" fill="#1B394F"/>
<circle cx="96" cy="102" r="6" fill="#1B394F"/>
<circle cx="6" cy="167" r="6" fill="#1B394F"/>
<circle cx="96" cy="6" r="6" fill="#1B394F"/>
<circle cx="188" cy="52" r="6" fill="#1B394F"/>
<circle cx="6" cy="52" r="6" fill="#1B394F"/>
<circle cx="188" cy="167" r="6" fill="#1B394F"/>
<circle cx="96" cy="29" r="6" fill="#1B394F"/>
<path d="M96.5 188.5V216.5M96.5 216.5L5.5 166.5M96.5 216.5L188 166.5M5.5 166.5L26.5 151.5M5.5 166.5V53.5M5.5 53.5L26.5 66M5.5 53.5L96.5 5.5M96.5 5.5V27.5M96.5 5.5L188 53.5M188 53.5L164.5 66M188 53.5V166.5M188 166.5L164.5 151.5" stroke="#1B394F"/>
<circle cx="97" cy="217" r="6" fill="#1B394F"/>
<path d="M42.1717 96.7412L41.136 135.715L42.4995 136.5L44.4995 137.5C45.7491 137.559 46.4995 138.5 48.9011 138.87L49.8131 107.412C49.8961 106.415 49.979 105.419 52.9687 105.667L73.2329 115.381C75.2954 116.724 78.0335 120.397 72.4866 124.35L55.5444 116.92C55.42 118.415 55.2788 119.352 55.1712 121.404C55.0999 122.765 54.9639 123.896 54.7981 125.889L73.2351 133.444C76.7921 132.903 83.931 130.32 84.1957 122.314C84.6659 118.674 83.5632 110.621 75.3912 107.533L46.4481 93.585C45.2855 93.4883 42.8025 93.9841 42.1717 96.7412Z" fill="#1B394F"/>
<path d="M150.155 98.4879L151.228 140.616L143.426 140.616L142.514 109.158C142.431 108.162 142.348 107.165 139.358 107.414L119.094 117.128C117.032 118.47 114.294 122.143 119.841 126.097L136.783 118.666C136.907 120.161 137.048 121.099 137.156 123.151C137.227 124.512 137.363 125.642 137.529 127.635L119.092 135.19C115.535 134.65 108.396 132.067 108.131 124.061C107.661 120.421 108.764 112.368 116.936 109.28L145.879 95.3317C147.042 95.235 149.525 95.7308 150.155 98.4879Z" fill="#1B394F"/>
<path d="M68.1787 69.5544L100.212 87.5089L101.417 86.7837L103.057 85.6533C103.611 84.6981 104.698 84.5229 105.976 82.8001L80.15 68.2482C79.3537 67.7448 78.5574 67.2413 79.972 65.0036L96.2453 53.3664C98.196 52.3376 102.36 51.8033 103.412 57.8971L89.9164 67.2891C91.1108 68.0442 91.8347 68.5676 93.4997 69.5544C94.6043 70.2091 95.4905 70.8129 97.0831 71.8198L111.286 61.3089C112.273 58.2787 112.535 53.2289 105.976 49.5C103.134 47.5298 95.984 44.8539 90.1118 49.9115L67.2779 64.8088C66.7277 65.679 66.1376 67.8465 68.1787 69.5544Z" fill="#1B394F"/>
</svg>
